<?xml version="1.0" encoding="UTF-8"?>
<svg xmlns="http://www.w3.org/2000/svg" xmlns:xlink="http://www.w3.org/1999/xlink" viewBox="0 0 96 96" width="96px" height="96px">
<g id="surface987712">
<rect x="0" y="0" width="96" height="96" style="fill:rgb(24.705882%,24.705882%,27.450982%);fill-opacity:1;stroke:none;"/>
<path style=" stroke:none;fill-rule:nonzero;fill:rgb(0.784314%,46.666667%,74.117649%);fill-opacity:1;" d="M 82 10 L 14 10 L 20 78 L 48 86 L 76 78 Z M 82 10 "/>
<path style=" stroke:none;fill-rule:nonzero;fill:rgb(1.176471%,60.784316%,89.803922%);fill-opacity:1;" d="M 48 16 L 48 79.800781 L 70.398438 73.398438 L 75.398438 16 Z M 48 16 "/>
<path style=" stroke:none;fill-rule:nonzero;fill:rgb(100%,100%,100%);fill-opacity:1;" d="M 66.199219 26 L 48 26 L 48 34 L 57.800781 34 L 57.199219 42 L 48 42 L 48 50 L 56.800781 50 L 56.199219 59 L 48 61.800781 L 48 70.199219 L 63.800781 65 L 65.199219 42 Z M 66.199219 26 "/>
<path style=" stroke:none;fill-rule:nonzero;fill:rgb(93.333334%,93.333334%,93.333334%);fill-opacity:1;" d="M 48 26 L 48 34 L 30.199219 34 L 29.601562 26 Z M 38.800781 42 L 39.199219 50 L 48 50 L 48 42 Z M 39.601562 54 L 31.601562 54 L 32.199219 65 L 48 70.199219 L 48 61.800781 L 39.800781 59 Z M 39.601562 54 "/>
</g>
</svg>
