<?xml version="1.0" encoding="UTF-8"?>
<svg xmlns="http://www.w3.org/2000/svg" xmlns:xlink="http://www.w3.org/1999/xlink" viewBox="0 0 96 96" width="96px" height="96px">
<g id="surface1010106">
<rect x="0" y="0" width="96" height="96" style="fill:rgb(24.705882%,24.705882%,27.450982%);fill-opacity:1;stroke:none;"/>
<path style=" stroke:none;fill-rule:nonzero;fill:rgb(10.196079%,73.725492%,61.176473%);fill-opacity:1;" d="M 63 12 L 75 12 L 75 24 L 63 24 Z M 75 68.261719 C 75 72.3125 74.050781 85.660156 62.273438 89.710938 L 51 84 C 59.417969 80.328125 63 74.398438 63 68.261719 C 63 59.777344 63 33 63 33 L 75 33.007812 C 75 33.007812 75 59.144531 75 68.261719 Z M 42 12 L 42 30.90625 C 40.59375 30.332031 37.558594 30.222656 36.066406 30.222656 C 24.820312 30.222656 15 36.03125 15 51 C 15 68.90625 28.511719 71.992188 37.949219 71.992188 C 41.675781 71.992188 49.949219 71.625 54 70.453125 L 54 12 Z M 37.828125 61.996094 C 32.519531 61.996094 27 59.589844 27 51 C 27 42.410156 32.519531 40.59375 37.828125 40.59375 C 39.121094 40.59375 40.582031 40.835938 42 41.160156 L 42 61.429688 C 40.585938 61.753906 39.125 61.996094 37.828125 61.996094 Z M 37.828125 61.996094 "/>
</g>
</svg>
