<?xml version="1.0" encoding="UTF-8"?>
<svg xmlns="http://www.w3.org/2000/svg" xmlns:xlink="http://www.w3.org/1999/xlink" viewBox="0 0 96 96" width="96px" height="96px">
<g id="surface1022419">
<rect x="0" y="0" width="96" height="96" style="fill:rgb(24.705882%,24.705882%,27.450982%);fill-opacity:1;stroke:none;"/>
<path style=" stroke:none;fill-rule:nonzero;fill:rgb(100%,83.92157%,0%);fill-opacity:1;" d="M 12 84 L 12 12 L 84 12 L 84 84 Z M 12 84 "/>
<path style=" stroke:none;fill-rule:nonzero;fill:rgb(0%,0%,0.392157%);fill-opacity:1;" d="M 59.074219 65.894531 C 60.460938 68.140625 61.964844 70.296875 65.148438 70.296875 C 67.824219 70.296875 69.230469 68.964844 69.230469 67.125 C 69.230469 64.925781 67.777344 64.140625 64.835938 62.859375 L 63.21875 62.171875 C 58.5625 60.195312 55.464844 57.71875 55.464844 52.488281 C 55.464844 47.671875 59.152344 44.003906 64.921875 44.003906 C 69.027344 44.003906 71.976562 45.425781 74.105469 49.148438 L 69.074219 52.363281 C 67.96875 50.386719 66.773438 49.609375 64.921875 49.609375 C 63.027344 49.609375 61.828125 50.800781 61.828125 52.363281 C 61.828125 54.289062 63.03125 55.070312 65.800781 56.265625 L 67.414062 56.953125 C 72.902344 59.289062 76 61.679688 76 67.046875 C 76 72.828125 71.433594 76 65.300781 76 C 59.300781 76 55.894531 72.988281 54 69.265625 Z M 35.902344 66.058594 C 36.914062 67.871094 38.453125 69.265625 40.664062 69.265625 C 42.78125 69.265625 44 68.429688 44 65.179688 L 44 44 L 50.664062 44 L 50.664062 66.203125 C 50.664062 72.9375 46.761719 76 41.054688 76 C 35.902344 76 32.183594 72.507812 30.664062 69.265625 Z M 35.902344 66.058594 "/>
</g>
</svg>
