<?xml version="1.0" encoding="UTF-8"?>
<svg xmlns="http://www.w3.org/2000/svg" xmlns:xlink="http://www.w3.org/1999/xlink" viewBox="0 0 96 96" width="96px" height="96px">
<g id="surface847236">
<rect x="0" y="0" width="96" height="96" style="fill:rgb(24.705882%,24.705882%,27.450982%);fill-opacity:1;stroke:none;"/>
<path style=" stroke:none;fill-rule:nonzero;fill:rgb(0.784314%,46.666667%,74.117649%);fill-opacity:1;" d="M 48.09375 10 C 44.984375 10.011719 42.828125 10.285156 40.222656 10.734375 C 32.527344 12.074219 31.125 14.886719 31.125 20.074219 L 31.125 28 L 49.125 28 L 49.125 32 L 21.738281 32 C 16.46875 32 11.855469 34.484375 10.390625 40.4375 C 8.738281 47.273438 8.664062 51.550781 10.390625 58.6875 C 11.703125 64.011719 14.589844 68 19.863281 68 L 27.125 68 L 27.125 57.792969 C 27.125 51.859375 32.496094 46 38.652344 46 L 53.125 46 C 58.171875 46 63.125 42.277344 63.125 37.246094 L 63.125 20.074219 C 63.125 15.195312 59.609375 11.546875 54.691406 10.730469 C 54.8125 10.71875 51.179688 9.988281 48.09375 10 Z M 38.125 18 C 39.769531 18 41.125 19.355469 41.125 21.003906 C 41.125 22.671875 39.769531 24 38.125 24 C 36.453125 24 35.125 22.671875 35.125 21.003906 C 35.125 19.359375 36.453125 18 38.125 18 Z M 38.125 18 "/>
<path style=" stroke:none;fill-rule:nonzero;fill:rgb(100%,75.686276%,2.745098%);fill-opacity:1;" d="M 46.15625 86 C 49.265625 85.988281 51.421875 85.714844 54.027344 85.265625 C 61.722656 83.925781 63.125 81.113281 63.125 75.925781 L 63.125 68 L 45.125 68 L 45.125 64 L 72.511719 64 C 77.785156 64 82.398438 61.515625 83.859375 55.5625 C 85.511719 48.726562 85.585938 44.449219 83.859375 37.3125 C 82.546875 31.988281 79.660156 28 74.386719 28 L 67.125 28 L 67.125 38.207031 C 67.125 44.140625 61.753906 50 55.597656 50 L 41.125 50 C 36.078125 50 31.125 53.722656 31.125 58.753906 L 31.125 75.925781 C 31.125 80.804688 34.640625 84.453125 39.558594 85.269531 C 39.4375 85.28125 43.070312 86.011719 46.15625 86 Z M 56.125 78 C 54.484375 78 53.125 76.644531 53.125 74.996094 C 53.125 73.328125 54.484375 72 56.125 72 C 57.800781 72 59.125 73.328125 59.125 74.996094 C 59.125 76.640625 57.796875 78 56.125 78 Z M 56.125 78 "/>
</g>
</svg>
